<svg width="513" height="342" viewBox="0 0 513 342" fill="none" xmlns="http://www.w3.org/2000/svg">
<g clip-path="url(#clip0_399_143)">
<path d="M0 0H513V342H0V0Z" fill="#D80027"/>
<path d="M226.8 239.2L217.1 223.6L199.2 228L211.1 213.9L201.4 198.3L218.5 205.2L230.3 191.1L229 209.5L246.1 216.4L228.2 220.8L226.8 239.2ZM290.6 82L280.5 97.4L292.1 111.7L274.4 106.9L264.3 122.4L263.3 104L245.6 99.2L262.8 92.6L261.8 74.2L273.4 88.5L290.6 82ZM236.2 25.4L234.2 43.7L251 51.3L233 55.1L231 73.4L221.8 57.4L203.9 61.2L216.2 47.5L207 31.6L223.8 39.1L236.2 25.4ZM292.8 161.8L277.9 172.7L283.7 190.2L268.8 179.4L253.9 190.4L259.5 172.8L244.6 162.1L263 162L268.6 144.4L274.4 161.9L292.8 161.8ZM115 46.3L132.3 99.8H188.5L143.1 132.7L160.4 186.2L115 153.2L69.5 186.2L86.9 132.7L41.4 99.8H97.7L115 46.3Z" fill="#FFDA44"/>
</g>
<defs>
<clipPath id="clip0_399_143">
<rect width="513" height="342" fill="white"/>
</clipPath>
</defs>
</svg>
