<svg width="513" height="342" viewBox="0 0 513 342" fill="none" xmlns="http://www.w3.org/2000/svg">
<g clip-path="url(#clip0_399_220)">
<path d="M0 0.0039978H513V341.997H0V0.0039978Z" fill="white"/>
<path d="M0 0.0039978H513V171H0V0.0039978Z" fill="#D80027"/>
<path d="M83.6414 85.4997C83.6414 60.5861 101.152 39.7735 124.533 34.6666C120.87 33.8634 117.131 33.4576 113.381 33.4562C84.6373 33.4562 61.3379 56.7556 61.3379 85.4987C61.3379 114.242 84.6383 137.542 113.381 137.542C117.211 137.542 120.939 137.116 124.533 136.332C101.152 131.227 83.6414 110.414 83.6414 85.4997ZM150.555 37.1745L154.246 48.5336H166.19L156.526 55.5543L160.218 66.9134L150.555 59.8938L140.891 66.9134L144.583 55.5543L134.919 48.5336H146.864L150.555 37.1745Z" fill="white"/>
<path d="M121.582 59.4789L125.272 70.8381H137.216L127.552 77.8588L131.244 89.2179L121.582 82.1982L111.918 89.2179L115.61 77.8588L105.946 70.8381H117.891L121.582 59.4789ZM179.529 59.4789L183.22 70.8381H195.164L185.5 77.8588L189.192 89.2179L179.529 82.1982L169.866 89.2179L173.558 77.8588L163.894 70.8381H175.839L179.529 59.4789ZM168.376 92.9352L172.067 104.294H184.011L174.349 111.315L178.04 122.674L168.376 115.654L158.714 122.674L162.405 111.315L152.743 104.294H164.686L168.376 92.9352ZM132.734 92.9352L136.424 104.294H148.368L138.705 111.315L142.396 122.674L132.734 115.654L123.071 122.674L126.762 111.315L117.099 104.294H129.042L132.734 92.9352Z" fill="white"/>
</g>
<defs>
<clipPath id="clip0_399_220">
<rect width="513" height="342" fill="white"/>
</clipPath>
</defs>
</svg>
